<mxfile host="app.diagrams.net" agent="Mozilla/5.0 (Windows NT 10.0; Win64; x64; rv:134.0) Gecko/20100101 Firefox/134.0 Viewer/98.9.8226.81" version="26.0.8">
  <diagram id="WI9T0HZ2pTsCkuznbFz-" name="Page-1">
    <mxGraphModel dx="1195" dy="628" grid="1" gridSize="10" guides="1" tooltips="1" connect="1" arrows="1" fold="1" page="1" pageScale="1" pageWidth="1169" pageHeight="827" math="0" shadow="0">
      <root>
        <mxCell id="0" />
        <mxCell id="1" parent="0" />
        <mxCell id="GUJNYmIYx219LYjbnGe9-21" value="" style="rounded=1;whiteSpace=wrap;html=1;gradientColor=none;fillColor=none;strokeColor=light-dark(#000000,#000000);" parent="1" vertex="1">
          <mxGeometry x="260" y="130" width="610" height="450" as="geometry" />
        </mxCell>
        <mxCell id="GUJNYmIYx219LYjbnGe9-11" value="" style="rounded=1;whiteSpace=wrap;html=1;gradientColor=none;fillColor=none;strokeColor=light-dark(#000000,#000000);" parent="1" vertex="1">
          <mxGeometry x="291" y="394" width="239" height="170" as="geometry" />
        </mxCell>
        <mxCell id="GUJNYmIYx219LYjbnGe9-12" value="" style="rounded=1;whiteSpace=wrap;html=1;gradientColor=none;fillColor=none;strokeColor=light-dark(#000000,#000000);" parent="1" vertex="1">
          <mxGeometry x="600" y="170" width="239" height="170" as="geometry" />
        </mxCell>
        <mxCell id="GUJNYmIYx219LYjbnGe9-10" value="" style="rounded=1;whiteSpace=wrap;html=1;gradientColor=none;fillColor=none;strokeColor=light-dark(#000000,#000000);" parent="1" vertex="1">
          <mxGeometry x="291" y="170" width="239" height="170" as="geometry" />
        </mxCell>
        <mxCell id="GUJNYmIYx219LYjbnGe9-1" value="ad-dc-vm" style="image;aspect=fixed;perimeter=ellipsePerimeter;html=1;align=center;shadow=0;dashed=0;spacingTop=3;image=img/lib/active_directory/domain_controller.svg;" parent="1" vertex="1">
          <mxGeometry x="389.5" y="225" width="42" height="60" as="geometry" />
        </mxCell>
        <mxCell id="GUJNYmIYx219LYjbnGe9-2" value="" style="shape=image;verticalLabelPosition=bottom;labelBackgroundColor=#ffffff;verticalAlign=top;aspect=fixed;imageAspect=0;image=data:image/svg+xml,PHN2ZyB4bWxuczpkYz0iaHR0cDovL3B1cmwub3JnL2RjL2VsZW1lbnRzLzEuMS8iIHhtbG5zOmNjPSJodHRwOi8vY3JlYXRpdmVjb21tb25zLm9yZy9ucyMiIHhtbG5zOnJkZj0iaHR0cDovL3d3dy53My5vcmcvMTk5OS8wMi8yMi1yZGYtc3ludGF4LW5zIyIgeG1sbnM6c3ZnPSJodHRwOi8vd3d3LnczLm9yZy8yMDAwL3N2ZyIgeG1sbnM9Imh0dHA6Ly93d3cudzMub3JnLzIwMDAvc3ZnIiB4bWxuczpzb2RpcG9kaT0iaHR0cDovL3NvZGlwb2RpLnNvdXJjZWZvcmdlLm5ldC9EVEQvc29kaXBvZGktMC5kdGQiIHhtbG5zOmlua3NjYXBlPSJodHRwOi8vd3d3Lmlua3NjYXBlLm9yZy9uYW1lc3BhY2VzL2lua3NjYXBlIiB2ZXJzaW9uPSIxLjEiIGlkPSJzdmcxMDEzMjkiIGlua3NjYXBlOnZlcnNpb249IjAuOTIuMyAoMjQwNTU0NiwgMjAxOC0wMy0xMSkiIHNvZGlwb2RpOmRvY25hbWU9InZpcnR1YWxfbmV0d29ya192bmV0LnN2ZyIgeD0iMHB4IiB5PSIwcHgiIHZpZXdCb3g9IjAgMCAxNDguMTExMyA4NC45MzA2NDgiIHhtbDpzcGFjZT0icHJlc2VydmUiIHdpZHRoPSIxNDguMTExMyIgaGVpZ2h0PSI4NC45MzA2NDkiPjxtZXRhZGF0YSBpZD0ibWV0YWRhdGE0MTk0Ij48cmRmOlJERj48Y2M6V29yayByZGY6YWJvdXQ9IiI+PGRjOmZvcm1hdD5pbWFnZS9zdmcreG1sPC9kYzpmb3JtYXQ+PGRjOnR5cGUgcmRmOnJlc291cmNlPSJodHRwOi8vcHVybC5vcmcvZGMvZGNtaXR5cGUvU3RpbGxJbWFnZSIvPjxkYzp0aXRsZS8+PC9jYzpXb3JrPjwvcmRmOlJERj48L21ldGFkYXRhPjxkZWZzIGlkPSJkZWZzNDE5MiI+JiN4YTsJJiN4YTsmI3hhOwkmI3hhOyYjeGE7CSYjeGE7JiN4YTsJJiN4YTsmI3hhOwkmI3hhOyYjeGE7CQkmI3hhOwkmI3hhOwkJJiN4YTsJJiN4YTsJCSYjeGE7CSYjeGE7CQkmI3hhOwkmI3hhOwkJJiN4YTsJPC9kZWZzPiYjeGE7PGZpbHRlciBpZD0iZmlsdGVyXzIiPiYjeGE7CTxmZUdhdXNzaWFuQmx1ciBpZD0iZmVHYXVzc2lhbkJsdXIxMDEyNzgiIHN0ZERldmlhdGlvbj0iMiIvPiYjeGE7PC9maWx0ZXI+JiN4YTs8c29kaXBvZGk6bmFtZWR2aWV3IGJvcmRlcmNvbG9yPSIjNjY2NjY2IiBib3JkZXJvcGFjaXR5PSIxIiBmaXQtbWFyZ2luLWJvdHRvbT0iMCIgZml0LW1hcmdpbi1sZWZ0PSIwIiBmaXQtbWFyZ2luLXJpZ2h0PSIwIiBmaXQtbWFyZ2luLXRvcD0iMCIgZ3JpZHRvbGVyYW5jZT0iMTAiIGd1aWRldG9sZXJhbmNlPSIxMCIgaWQ9Im5hbWVkdmlldzEwMTMzMSIgaW5rc2NhcGU6Y3VycmVudC1sYXllcj0ic3ZnMTAxMzI5IiBpbmtzY2FwZTpjeD0iNDAuMTgyNTg3IiBpbmtzY2FwZTpjeT0iMTguNTU3ODYzIiBpbmtzY2FwZTpwYWdlb3BhY2l0eT0iMCIgaW5rc2NhcGU6cGFnZXNoYWRvdz0iMiIgaW5rc2NhcGU6d2luZG93LWhlaWdodD0iMTAxNyIgaW5rc2NhcGU6d2luZG93LW1heGltaXplZD0iMSIgaW5rc2NhcGU6d2luZG93LXdpZHRoPSIxOTIwIiBpbmtzY2FwZTp3aW5kb3cteD0iLTgiIGlua3NjYXBlOndpbmRvdy15PSItOCIgaW5rc2NhcGU6em9vbT0iMi45NzE3MDUzIiBvYmplY3R0b2xlcmFuY2U9IjEwIiBwYWdlY29sb3I9IiNmZmZmZmYiIHNob3dncmlkPSJmYWxzZSI+JiN4YTsJPC9zb2RpcG9kaTpuYW1lZHZpZXc+JiN4YTsmI3hhOzxwYXRoIGlkPSJwYXRoMTAxMjkxIiBpbmtzY2FwZTpjb25uZWN0b3ItY3VydmF0dXJlPSIwIiBzdHlsZT0iZmlsbDojMzk5OWM2IiBkPSJtIDE0Ny4xMTA2NSw0NC41OSBjIDEuNDgsLTEuNDggMS4xOCwtMy44NCAwLC01LjMyIGwgLTcuMSwtNy4xIC0zMS45NCwtMzEuMDYgYyAtMS40OCwtMS40OCAtMy41NSwtMS40OCAtNS4wMywwIC0xLjQ4LDEuNDggLTEuNzcsMy44NSAwLDUuMzMgbCAzMy40MiwzMi44MyBjIDEuNDgsMS40OCAxLjQ4LDMuODQgMCw1LjMyIGwgLTM0LjAxLDM0LjAxIGMgLTEuNDgsMS40OCAtMS40OCwzLjg1IDAsNS4zMyAxLjQ4LDEuNDggMy44NCwxLjE4IDUuMDMsMCBsIDMxLjY0LC0zMS4zNSBjIDAsMCAwLDAgMC4zLC0wLjMgeiIvPiYjeGE7JiN4YTs8cGF0aCBpZD0icGF0aDEwMTI5OSIgaW5rc2NhcGU6Y29ubmVjdG9yLWN1cnZhdHVyZT0iMCIgc3R5bGU9ImZpbGw6IzM5OTljNiIgZD0ibSAxLjAwMDY1MjEsNDQuNTkgYyAtMS40OCwtMS40OCAtMS4xOCwtMy44NCAwLC01LjMyIGwgNy4xLC03LjEgTCA0MC4wNDA2NTIsMS4xMSBjIDEuNDgsLTEuNDggMy41NSwtMS40OCA1LjAzLDAgMS40OCwxLjQ4IDEuNzcsMy44NSAwLDUuMzMgbCAtMzIuODMsMzIuODMgYyAtMS40OCwxLjQ4IC0xLjQ4LDMuODQgMCw1LjMyIGwgMzMuNDIsMzQuMDEgYyAxLjQ4LDEuNDggMS40OCwzLjg1IDAsNS4zMyAtMS40OCwxLjQ4IC0zLjg0LDEuMTggLTUuMDMsMCBMIDguMzkwNjUyMSw1Mi44NyBjIDAsMCAwLDAgLTAuMjksLTAuMjkgeiIvPiYjeGE7JiN4YTs8cGF0aCBpZD0icGF0aDEwMTMwNyIgaW5rc2NhcGU6Y29ubmVjdG9yLWN1cnZhdHVyZT0iMCIgc3R5bGU9ImZpbGw6IzdmYmEwMCIgZD0ibSA1My45NDA2NTIsNDEuOTMgYyAwLDUuNjIgLTQuNzMsOS43NiAtOS43Niw5Ljc2IC01LjAzLDAgLTEwLjM1LC00Ljc0IC0xMC4zNSwtOS43NiAwLC01LjAzIDQuMTQsLTkuNzYgMTAuMzUsLTkuNzYgNS45MiwwIDkuNzYsNC43MyA5Ljc2LDkuNzYgeiIvPiYjeGE7JiN4YTs8cGF0aCBpZD0icGF0aDEwMTMxNSIgaW5rc2NhcGU6Y29ubmVjdG9yLWN1cnZhdHVyZT0iMCIgc3R5bGU9ImZpbGw6IzdmYmEwMCIgZD0ibSA4My44MTA2NTIsNDEuOTMgYyAwLDUuNjIgLTQuNzMsOS43NiAtOS43Niw5Ljc2IC01LjAzLDAgLTEwLjM1LC00Ljc0IC0xMC4zNSwtOS43NiAwLC01LjAzIDQuNzMsLTkuNzYgMTAuMzUsLTkuNzYgNS42MiwwIDkuNzYsNC43MyA5Ljc2LDkuNzYgeiIvPiYjeGE7JiN4YTs8Y2lyY2xlIGlkPSJlbGxpcHNlMTAxMzIzIiBzdHlsZT0iZmlsbDojN2ZiYTAwIiBjeD0iMTA0LjIyMDY1IiBjeT0iNDEuOTMiIHI9IjkuNzYwMDAwMiIvPiYjeGE7PC9zdmc+;" parent="1" vertex="1">
          <mxGeometry x="435.5" y="90" width="69.65" height="40" as="geometry" />
        </mxCell>
        <mxCell id="GUJNYmIYx219LYjbnGe9-4" value="&lt;div&gt;workstation-&lt;/div&gt;&lt;div&gt;linux-vm&lt;/div&gt;" style="image;sketch=0;aspect=fixed;html=1;points=[];align=center;fontSize=12;image=img/lib/mscae/VM_Linux.svg;" parent="1" vertex="1">
          <mxGeometry x="734.5" y="232" width="50" height="46" as="geometry" />
        </mxCell>
        <mxCell id="GUJNYmIYx219LYjbnGe9-5" value="work-win-vm" style="image;sketch=0;aspect=fixed;html=1;points=[];align=center;fontSize=12;image=img/lib/mscae/VirtualMachineWindows.svg;" parent="1" vertex="1">
          <mxGeometry x="654.5" y="232" width="50" height="46" as="geometry" />
        </mxCell>
        <mxCell id="GUJNYmIYx219LYjbnGe9-14" value="wazuh-server-vm" style="image;sketch=0;aspect=fixed;html=1;points=[];align=center;fontSize=12;image=img/lib/mscae/VM_Linux.svg;" parent="1" vertex="1">
          <mxGeometry x="385.5" y="456" width="50" height="46" as="geometry" />
        </mxCell>
        <mxCell id="GUJNYmIYx219LYjbnGe9-15" value="" style="shape=image;verticalLabelPosition=bottom;labelBackgroundColor=default;verticalAlign=top;aspect=fixed;imageAspect=0;image=data:image/png,iVBORw0KGgoAAAANSUhEUgAAARAAAACACAYAAADDGzbiAAAWKElEQVR42u1dDXBc1XU+7+1aUiKMx2hsa5XxZGISpmOmHdxkAgzOjwsYGwbXRj+EiUg6SoqTghwIkYsjO9gJqoPd4BiTFrm1E1IR6pX8hwK2GTt2Bsg4LSlpB0xLBk+pW72VQGGMrGBJ+97tPfdJa/3s3nvf/r739nwzu1rtvvfue/fnu+ece865AIRw4tDv50CPVV+y8nsSi3n5N1BDhBsmVUFIkRy5CRz2N3CCRUpSvuNs4OWvpIYgAiEEEQ67FRi7CgatrxS97G7ro/z9Tv66lRqCCIQQTEzM/hvhMKsoaskMHuTkNYu/lsCBwY9QUxCBEIKE7oFr+OCNuYOZLYQRa23Ryt4/sICLP385SZW6jRqECIQQJDB7+qDdBEf6q4tStp1s5RJI1aRvVlCDEIEQgsUgN079l82DIef+gheLKz8A9037dnnRVSgCEQghp0G8NA2ptI3/VjiMjtzHyWrONPKqhuTAZ6lhiEAIQQAu36IBcwZ/8IE9erGtYOUKFYl9I71aYy+nhiECIQQBuHybGfe7Rs4CYMhuEapSepAhlQiEEBDcnPEXVCfs5IN5L9F1VmuTlLt43DeEQARC8C3c5duF8oNYa959MwYTX1SWy9gqaiAiEIKfwZI3q4+BKkiObMpfmczgb3+dk2REIAIh+AK6sSctsH/gyryUuD9xh1BR1ExzMy3nEoEQ/IqMy7dppYZZYCc356Vch7Xrlckln9HEjdRQRCAEPyLT8m1mEmkWIfc5SR/9N4l4F+0ygaJziUAIvoR8+TbDOU5uUohtf9vbCYyWc0MGg6ogJIj3/Y96BSZdDzDezLpMTBfgFZHI1dBQe4YaLByIUhWEAKiK2PbCopFATpKSg3YQIhBSYQj+UV+cIKkGpMYQgRB8hiAZJ/+saKkFCEQgBAW8LN/6AbhSdMGh5VwiEELJgTEooxf3eVq+9QeJbCYphAiEUGoMWrv5YLwlcPeNviNDdi95phKBEEqFuNXOB2JLYO+fsWUwYnWVbNsJAhFI2WJfXzMw55HAPwdjjTCY2EENGlyQI1nQ0JP4PDjOC4Gze0h7obkRmmId1LhEIITCksdiTh6/mpF3NBQ90VgLTXW7qZGJQAiFAKYitJP/mpW7elAQMRugIbafGjs4IBtIEIBLnnbySKjJA+E4XUJFIxCBEPIEXKUYsvd7CpsPKjBniOMcEqkZCaTCEPKAuNUCzNkT3B5mWPz97Unf/LFI7qw6Z3bkE7BywTB1AJJACLmgpvYpMMxdGgP1GETMpamXYazjr7ESk8dpiFZfDU1114sXGP+gQR5jYBqtRB4kgRDyKon0PcIHX7ti8HVCTexeuNGwxf+YMcy2DykHbWHIo5dLEXeliCDe18rv43HFOcMQiayG+gXHqcGJQAj5JxGdQdgNlbFm+HNjVPwvtnpIPs/PixWRPPZyIrsnRWTxvjZe/jbFOe9wyWMlNMR+Qw1NBEIoFNAL1YC9Ukey6bM/burE2PN62dNzJo8Orq5svER66HKv8Jo1jLMQiS6H+vlvUQMTgRAKjW5rJSeDbqlqYhgnoaJqDay+4rz4H8P+Ry8eFDEohSOPdZw8dk2SmLbx8toU57zKyWMlJ49+algiEEKx0JO4FhynV7If7czBidGvI9YekZE9v8SBhs+7Uk5guNlUd2InlzxaFedNJTkCEQihqCSCru3HpfYNTJpsGMuhMfb2pcFtPaqUDPTJ4zyY5mpoqD0l/ke/FTfNQIvivINQGftCylZDIAIhlESdQfvGC9LkyIZxjksiy6bYGOJ99/D3J2bYUsTSr/E13jPeTX2HEgtGzs68rgVG9FZonP/bSeTxE6WEM321iEAEQigh3DiZI1JvVVzlMKLLU4PdJZ9V/JyfTbGlGMZ2aKpbP+Vc137yb/y4RRklG1c9+md+zBoFeUw1shICDXIkCwPQxlFRtUzYFDIBbSUseQp6rBtS3zXGngXT+JwgF3dwn4XZkS2p3w+cnyv+oo3CNL40zbby2Wnk8awGeawj8iACIfgROMgrYyuEbSEzicwBhx0TqzgTQL+LSPR6IVFEImtTS78Y1JYcfimVdrAh9rKQHtDjdXbkMynDLAb6jVhHpakVDbgoIm0nr9AQSIUh+BA6RszpqyYTRDBBHvh5yH5DRP9OVmkmyGTC8OmqNkge10nKmmpkJRCBEAIAPR+M9El84n17UgQkyMb8DCeAX085BtWb5PAJhd1lqpGVQARCCBSJ6LiQr+cksj31P6o3jvP8tGPOcPVoSUrycI22v5B6tpJ3KREIIQwkYnFJgj0pd303d3GV5mmwnU/wHvFE2pSJ6B5vGo8Cgxr++44pKzIzjyXvUiIQQmgglmudfSJhT8F7FHmXEoEQwgc3m/uhgiZknh4JTCACIYSJRKx6rqb0FIg8DkJNrJG8S8sL5AdSTphbe0i4tRekJxkdRB5EIIQwwx3g+XfmwtSFlAiICIRQBohW/6NIHZhPMPgRVSwRCKEccMec9/h7Vx6lj3egKhaniiUCIZRNq5uP5/FqP6FVFyIQQjmhofaMCIrLjwRC6gsRCKHsYBg783CN3lRIP4EIhFBWUshREcKfG4H8PVUkEQihPCUQBpjSMPvz3xQkRCACIZQpZkf2inwd2eGJcRIiEIEQyhJuAqHd3qUPuAjR6i6qQAIRSLkjEu3MQn/52bg/CYEIhFDWwIQ/uJriiT+ilNuUQARCmOgF5mP65GGcphSFBCIQwiVgwmNMW6gDinshEIEQ0ogWP9CQPijuhTAFUaoCgsBscx8MTdqhLh0ikTco7oVAIBAIBAKBQCAQCAQCgUAgEAgEAoFAIBAIBAKBQCAQCAQCgUAgEAgEAoFAIBAIBAKBQCAQCAQCoaAw4Eh/tfKoivkX4UbDDnVNHGYVUDEwS3qMm8U8O3Rbq4CxRv6pkr9ehMpYZ0lya+i0dyngpY+dYBEYHajK+Pvo/LGS5i1R3Z/sWbF9PqiqyHhuMZNZ45iw38/cXyKXD0dhyH6Gd+zb5TST2MjfO0JNHiPWG3CRLcpcByLx8Kqsrh/vewQcp33SN428vNt4R7utqMSMz/l+3wV/TmXWGK+n3/FPO6EmtkdaL+/1fwps+7TkWrjv74qSPYvq/szErUgVaX8bsnuBXViWoQ/iBHZZ0Z5jLHE72E5P5t+H7zbBNB9SX4m1wYHzc0NLICPWWk6ii6THaNVTOvKwWvi122dWKbsFBhM7SAhO1ccs/lrMX50waG2lCgkGzPGd2vcqGncOJIc3hLIGXJFe/mxYP1hPXnFg8CO88h7PXK9OK/QkPk/dcEZ/a4P9A1dSRQSBQNwB8l2x25i8VVvdAREyDDn38w4by0wevF6wfrJBcmQHv7bc5uA4PxKqBWFad7OvoUoICoE0xt7mI0W+WRCDKj4gNoXq6YVaxmc7ufixy60fj0DJwjWaqmbbxVyF+gZ1xRn1/r9UB0EhEES0eqvGRsstoRItUS1D9Syz6nJe1ItXoESBkoU+Hg6ldJc1dxgWzF3wClVEkAjEXR7qUMyWs8BObg6H9CHsE62KozqyWjZDiQIlC32dv1qoOwQXkciXgu02wJLl0lRT94WZHfk7GLJbeYdeKOnszVw835qVUdFX0gdXx1AtyzwLnhP1kQ0xJUce9t7nuLqzv/8mqF9wvGDPfBnYkIzeXPS6tu27+PO16Ekf5lcKWgeEAhIIOkrFLS5hsD3Ssxzn+5CtT4QfgGqYnVR0aGNzVo5jOobTzANtJ1d/lhTMCcqd1Ys7OHusev5+t6bqshaaYntpWAZRhZlATe1Tyn1S0fGsx7ohsE9tJ7cKdSxzRz4j6sHzYNE0nGau13AZVJE8HPaMtK6nkEfdbhqSQScQnKUMQ+3z4bDvBfKJuweuUQ5yfH6vOji6L6sMp4bRLQyEcoTDoIqu+/rksY7IIywEgmiMPcsb9bRitlwmdPaggSW/r+jMp8Xze8Wg9U2p4RRXdCLRVmCwXlGvwTeounE/PR7IYxcNxTARiPjF+JaGzr4tWCK1UDFukdeIxnNPhysxqAynm6B+fj/cWdfFB81JBYk0BpKciTyIQFJoiL08HkAm6+hLxo1kwYDjbFV06F7x3F6hMpwKm0rs0oqOEf0m/25MQc7B81DttlZ6II/1RB5hJhDxq0YAmcO+K/T/YMyM1+X8vOmlmkbFde+dYlNpnP9bPoKeVJDzVTCSaAsWeTgHPJDHdhp+YScQvUC7xTCY+LKvnxIJjjGV9OE9YE7XcNpQe2rG9xWVm/hv78gLYBv4wPyo73sRqluCPCR+NUQeZUggiGjldzQC7Tb7Wtx+17pLbuDMMmBObTgd5q/0UsTqK87zAx5SkHM1f+3wPXnYyV498jA3EnmUG4HcUfN/6kA7tlDk1PAjkNgM2KLo2d4D5vYPLACl4dTYKr1uY+2PNVa71gj1wI9A9c0TecQ6aMiFC1G9o6q3QnL4HmngGa4yHOnfm1Pav0JAlSwo24A5O/m3CsPpWais3a4Q5xn0WPeBzV5RkMgPORGeKGmavnTk4Tg/J/IoIrC/xfteL1p5DpudHwLBgLJ4H3aAbZKHmydya/gp9SEmCxqyVU5x3gPmxMxrNyvI4QGtAd8Q+w2v205ef2sldTthUO3wF3louOwbRgeRR15JZLGfbsfUPrIytlMEmMmfzl+pD5XJgrIImNMznB7z5IwWrd6gNqg6G31hUMUQBk/kUbeRRn25qzAInE1VgXaXUh+u9zijLebi0qcUVPe6mK11gUSWHFYlC/IeMKc2nI5BJHqvp2u6Eh4OtM7MdYuqAkNb1KrSkgc7RuRB8C6BIHQC7TDHhmtg9DKjdwFznpK+HBb35G+iThbkPWDOfa52xVE/hPr5b3luCcxEbhivKsTX20tmUPVGHtuJPIhAZkIn0A5nSju5RX9GT3xReLSqdb9F4lgt6UMjWVA2AXOu4VRGShZXibZk1RJ4L6b5dY16eKLoS+Y9iWs5eTzngTzW09AiAkkPnUA73dSHYiCwR/QLZ+1aUog6WZD3gDnX47RZQZ7rc1qFaqj9tYbj3qKieqgK8nCOKVbgiDzIBuKFdoxvgc1eknTyidSH8kQybuq/hfr8wa4al0J+KlEz1MmCvAbMIWkNWirD6Uk+eLpybpFI9Nv8/uvlA1YYVLuySvbsTW35pD55mLugKVYs8hhS/D6ntMPKkC9/GvB+dpc1hqEydkXRHkO1sVTWBIIBZ/G+XumOdqrUh66Rs9174UIKeTqj+qFOFuQ9YG7Q+iuN5bNXYF9fc4YyTb06Z1F+//gBJbxbpGpioQ2qgjzYCQ/ksa5449Mc5A0tO+Ly0hIIq1E8QPbbUxbTF6jHUh4SzfriGHjmOCukg1WW+jD5hy1anTOdFIKu6QAzZ3tMFuSMNUrIY8xzwBwaTu3k9zTuq03yWwH6qDCorsoqd4kKoh6T/iQPxIfZBcUcPq+k/OEoCEQQYLnaQC7p6yhZ/JOyk6MOnU7NAPa17Gcg2JTWFqJKFoT36zVgTmU4LelEx3bk3aAqMrYlX9C0eXQWnTwQaGeSpUNAp8bSbj9yrXzanvceEYioCI1Au3Q5ONRqxjFNKWSSuKVIFoT3iffrTYS7QWk4LS2BLIIR6zsFII95WuTRGPt6CZ/+d9Jfk8nrS3hvSyX1ds5XIQklJRC9QLupqQ9Rt5blzxAxJLFVSp8IAzZMkUJUyYLwPsX9akL4p7AA5OlkD+ZltkVnPn3y2CvIA2N5SocXFf2jNA53oh75BJcZv4QQwcz5ChVVHcod7SanPnSYPMCMwcOCoQ1js4KYFqekEFWyoGwC5vQMpz7gD+F3syPnTu84pzyQx1dLTB743C8p+kejeK6i2z8cVezVi2EikGjOV8C8FupAOzf1IYMxXsHLJJ3zVd45n4Y7wfU3ifedlhODkEKe4YNdRQ7eAuZ0DKeuL8y/F6mdmqVOXLkYVL2SR03snpKTh5j6jBf5ZKQazI/x/nFb0Xa5Q5XXduQqr2m+RAQyHRhoN2LJd7TD1IfqDto+pXOa5gYuvZyUSiGDVrciNuWcuD8vUHucDkO0ssGTSpQL4n1vSQnarYsdcKT/hCdHNpc8jmuSR5cgD79sOYk+MPG+N6XqAtrEBq3d/G/hJSa3Lp9T1OE5qF/wBqkw0yGMQhoqh3ygn+Sd4siU7zAVoNqgukbR8zd7MlrpGU63FI08JghavdnXIo3UBenII6ZJHn/hv/1qjUfVqg5r4dLZ4YKtyjBmQNxqGZfiVCtX230hvfmOQBBagXZSkXRThu/bs+9fHgPmXMPpLsU13/Qs0eSDoDExs7o36xlU8ZjAkwcSa22XOsXEuIpnj73GJZZtYqUpH8BcM6iWd1u/AubsUUpxGCdVGeuEkCGatythB+u2MAL2cBYDPbN3qJtw56Ba0kh7XW8Bc67hdInimveXZBkOpbF4X5dUOnINquhyvyLjMZhTxE6e1CQP9LWo5vXyDC+7uM8biW5QRjWLFBN9GEulHpiu924bsLE2fs5Z/s0p/oBn+RT6n/zzf4NZkeCT1QUw5n4grouSxdGBD8MfjMsAtyUH9jGuTmNmu4/z15/AUPJzWtnYLmFrmJZvU12kAPr6L8TSrafOErla6uCF4rZtv+6RPE5DU52+L4BrOP0vhe2jl1+zdPk4dO5R1KfZwIl3/4zv0elsxPqlcnsLPyASuU4EF+qoEN3Wvpz2JE5HnDrbU+hf7yCX4hq1JjPZ+EHbW1PdZUVrA5SwpLEwxt1m3gvNpIrIRGSVd6i7vUSXx/vwFjCnNJzCRT4rPlDSQYU722HuWRUcYVCduWozmlgRCPLw1n8YVw2albv9ebNr5JM8TsPsyN2+VAF9ZQO5pHK8LBhXl+kj0c2ax25U7uamoxKlZ1oNw6nxg6wSBeUbuMOdOvHQwrQGVcaWhrETC9UgWl2vrJfik9sZ3r9X+y7RuK8JRFzV1BzsxpPag1KErit2c5sgJS8Bc3qGU8ydutUXLaabeAjTSs4wqCoc/oIM9POpjF0nUinqTjSFI44xcR+VsSXjUiMQgXiSQoRKsldRycNcz/WWrRuPx/Pk8BYwp2M4NY0HfDWLuImHOpViuGtQnfwcx0s+uAotiWAqRdO8pmTSCJZrRD8t7iOERtPiEIgY7NGHFUtsWzyzs3v8FknjvSMS8ujCzXGq8jg9mdYgWWroZHJHR6rJm5+7RskHQ00iExNYU92fQsRcKohWmfE+Z9I4L7x0I5FlXFL+pLv3cXkgWrAr42DvsdaAAwdneKhio9bEHsvSBvAYlxqunLGPCnYS01jjiZTUHqeoDt3nW5E9bj0kzZKPcA2qR1MSVFPdLk6cz4Ntf4Gf+0f8m0pfPp9hvps7kQg72MtwmK0bNyB/GnAJFuBq6WZjasLAiRFJ4j/453+Bitqj5SBtpK2Kgpcglg4Tzbyz8gYzPgAj8lxeGNrNEr6SX/Nyfu3XoKJqn7vfrAfgEqC6s/jbczAMz1AK4CrVsINOZbV8kuOTCMYaib70ofG/74v+6v4d5rI69q0ERCtf89zPvEA4+UH6lIiGM+o5n00uOPT7OTCW/FhmLaPy7f8Hjnr4STihfwwAAAAASUVORK5CYII=;" parent="1" vertex="1">
          <mxGeometry x="373.42" y="400" width="74.16" height="34.9" as="geometry" />
        </mxCell>
        <mxCell id="GUJNYmIYx219LYjbnGe9-16" value="10.0.10.0/24" style="text;html=1;align=center;verticalAlign=middle;whiteSpace=wrap;rounded=0;" parent="1" vertex="1">
          <mxGeometry x="310" y="140" width="60" height="30" as="geometry" />
        </mxCell>
        <mxCell id="GUJNYmIYx219LYjbnGe9-17" value="10.0.30.0/24" style="text;html=1;align=center;verticalAlign=middle;whiteSpace=wrap;rounded=0;" parent="1" vertex="1">
          <mxGeometry x="620.5" y="140" width="60" height="30" as="geometry" />
        </mxCell>
        <mxCell id="GUJNYmIYx219LYjbnGe9-20" value="10.0.255.0/24" style="text;html=1;align=center;verticalAlign=middle;whiteSpace=wrap;rounded=0;" parent="1" vertex="1">
          <mxGeometry x="667" y="394" width="60" height="30" as="geometry" />
        </mxCell>
        <mxCell id="GUJNYmIYx219LYjbnGe9-22" value="" style="verticalLabelPosition=bottom;html=1;verticalAlign=top;align=center;strokeColor=none;fillColor=#00BEF2;shape=mxgraph.azure.rdp_remoting_file;pointerEvents=1;" parent="1" vertex="1">
          <mxGeometry x="405.5" y="210" width="30" height="30" as="geometry" />
        </mxCell>
        <mxCell id="GUJNYmIYx219LYjbnGe9-23" value="" style="verticalLabelPosition=bottom;html=1;verticalAlign=top;align=center;strokeColor=none;fillColor=#00BEF2;shape=mxgraph.azure.rdp_remoting_file;pointerEvents=1;" parent="1" vertex="1">
          <mxGeometry x="690.5" y="210" width="30" height="30" as="geometry" />
        </mxCell>
        <mxCell id="GUJNYmIYx219LYjbnGe9-24" value="10.0.0.0/16" style="text;html=1;align=center;verticalAlign=middle;resizable=0;points=[];autosize=1;strokeColor=none;fillColor=none;" parent="1" vertex="1">
          <mxGeometry x="430.33" y="60" width="80" height="30" as="geometry" />
        </mxCell>
        <mxCell id="FUtDYJ5WX_Y5CBHML0MV-1" value="" style="image;aspect=fixed;html=1;points=[];align=center;fontSize=12;image=img/lib/azure2/other/SSH_Keys.svg;" vertex="1" parent="1">
          <mxGeometry x="770" y="210" width="34" height="30" as="geometry" />
        </mxCell>
        <mxCell id="FUtDYJ5WX_Y5CBHML0MV-2" value="" style="image;aspect=fixed;html=1;points=[];align=center;fontSize=12;image=img/lib/azure2/other/SSH_Keys.svg;" vertex="1" parent="1">
          <mxGeometry x="420" y="440" width="34" height="30" as="geometry" />
        </mxCell>
        <mxCell id="FUtDYJ5WX_Y5CBHML0MV-5" value="" style="rounded=1;whiteSpace=wrap;html=1;gradientColor=none;fillColor=none;strokeColor=light-dark(#000000,#000000);" vertex="1" parent="1">
          <mxGeometry x="654.5" y="424" width="130" height="110" as="geometry" />
        </mxCell>
        <mxCell id="FUtDYJ5WX_Y5CBHML0MV-4" value="vpngw" style="image;sketch=0;aspect=fixed;html=1;points=[];align=center;fontSize=12;image=img/lib/mscae/VPN_Gateway.svg;" vertex="1" parent="1">
          <mxGeometry x="696" y="448" width="47" height="52.22" as="geometry" />
        </mxCell>
        <mxCell id="FUtDYJ5WX_Y5CBHML0MV-6" value="10.0.20.0/24" style="text;html=1;align=center;verticalAlign=middle;whiteSpace=wrap;rounded=0;" vertex="1" parent="1">
          <mxGeometry x="310" y="365" width="60" height="30" as="geometry" />
        </mxCell>
        <mxCell id="FUtDYJ5WX_Y5CBHML0MV-7" value="Internet" style="image;aspect=fixed;perimeter=ellipsePerimeter;html=1;align=center;shadow=0;dashed=0;spacingTop=3;image=img/lib/active_directory/internet_cloud.svg;" vertex="1" parent="1">
          <mxGeometry x="930" y="434.9" width="140" height="88.2" as="geometry" />
        </mxCell>
        <mxCell id="FUtDYJ5WX_Y5CBHML0MV-10" value="" style="endArrow=classic;html=1;rounded=0;exitX=0;exitY=0.5;exitDx=0;exitDy=0;entryX=1;entryY=0.5;entryDx=0;entryDy=0;" edge="1" parent="1" source="FUtDYJ5WX_Y5CBHML0MV-7" target="FUtDYJ5WX_Y5CBHML0MV-5">
          <mxGeometry width="50" height="50" relative="1" as="geometry">
            <mxPoint x="560" y="410" as="sourcePoint" />
            <mxPoint x="610" y="360" as="targetPoint" />
          </mxGeometry>
        </mxCell>
        <mxCell id="FUtDYJ5WX_Y5CBHML0MV-11" value="P2S VPN" style="edgeLabel;html=1;align=center;verticalAlign=middle;resizable=0;points=[];" vertex="1" connectable="0" parent="FUtDYJ5WX_Y5CBHML0MV-10">
          <mxGeometry x="-0.5862" y="-1" relative="1" as="geometry">
            <mxPoint y="-8" as="offset" />
          </mxGeometry>
        </mxCell>
      </root>
    </mxGraphModel>
  </diagram>
</mxfile>
